<svg xmlns="http://www.w3.org/2000/svg" xmlns:xlink="http://www.w3.org/1999/xlink" width="500" zoomAndPan="magnify" viewBox="0 0 375 374.999991" height="500" preserveAspectRatio="xMidYMid meet" version="1.0"><defs><g/></defs><g fill="#fe00ae" fill-opacity="1"><g transform="translate(94.399482, 237.168488)"><g><path d="M 55.0625 2.828125 C 44.707031 2.828125 34.890625 1.648438 25.609375 -0.703125 C 16.335938 -3.054688 8.609375 -6.316406 2.421875 -10.484375 L 2.421875 -45.984375 L 42.75 -45.984375 L 42.75 -43.96875 C 42.75 -36.707031 46.25 -33.078125 53.25 -33.078125 C 56.875 -33.078125 59.59375 -34.050781 61.40625 -36 C 63.226562 -37.945312 64.140625 -41.003906 64.140625 -45.171875 L 64.140625 -123.84375 L 45.984375 -123.84375 L 45.984375 -156.90625 L 130.6875 -156.90625 L 130.6875 -123.84375 L 120.609375 -123.84375 L 120.609375 -56.0625 C 120.609375 -36.300781 114.828125 -21.546875 103.265625 -11.796875 C 91.703125 -2.046875 75.632812 2.828125 55.0625 2.828125 Z M 55.0625 2.828125 "/></g></g></g><g fill="#fe00ae" fill-opacity="1"><g transform="translate(228.72088, 237.168488)"><g/></g></g><g fill="#0666e6" fill-opacity="1"><g transform="translate(110.7272, 255.965797)"><g><path d="M 55.609375 2.859375 C 45.148438 2.859375 35.234375 1.671875 25.859375 -0.703125 C 16.492188 -3.085938 8.6875 -6.382812 2.4375 -10.59375 L 2.4375 -46.4375 L 43.1875 -46.4375 L 43.1875 -44.40625 C 43.1875 -37.070312 46.71875 -33.40625 53.78125 -33.40625 C 57.445312 -33.40625 60.195312 -34.390625 62.03125 -36.359375 C 63.863281 -38.328125 64.78125 -41.414062 64.78125 -45.625 L 64.78125 -125.078125 L 46.4375 -125.078125 L 46.4375 -158.484375 L 132 -158.484375 L 132 -125.078125 L 121.8125 -125.078125 L 121.8125 -56.625 C 121.8125 -36.664062 115.972656 -21.757812 104.296875 -11.90625 C 92.617188 -2.0625 76.390625 2.859375 55.609375 2.859375 Z M 55.609375 2.859375 "/></g></g></g><g fill="#0666e6" fill-opacity="1"><g transform="translate(246.384543, 255.965797)"><g/></g></g><g fill="#ffd600" fill-opacity="1"><g transform="translate(99.729241, 244.908882)"><g><path d="M 55.609375 2.859375 C 45.148438 2.859375 35.234375 1.671875 25.859375 -0.703125 C 16.492188 -3.085938 8.6875 -6.382812 2.4375 -10.59375 L 2.4375 -46.4375 L 43.1875 -46.4375 L 43.1875 -44.40625 C 43.1875 -37.070312 46.71875 -33.40625 53.78125 -33.40625 C 57.445312 -33.40625 60.195312 -34.390625 62.03125 -36.359375 C 63.863281 -38.328125 64.78125 -41.414062 64.78125 -45.625 L 64.78125 -125.078125 L 46.4375 -125.078125 L 46.4375 -158.484375 L 132 -158.484375 L 132 -125.078125 L 121.8125 -125.078125 L 121.8125 -56.625 C 121.8125 -36.664062 115.972656 -21.757812 104.296875 -11.90625 C 92.617188 -2.0625 76.390625 2.859375 55.609375 2.859375 Z M 55.609375 2.859375 "/></g></g></g><g fill="#ffd600" fill-opacity="1"><g transform="translate(235.386585, 244.908882)"><g/></g></g><g fill="#ffffff" fill-opacity="1"><g transform="translate(50.799347, 296.708747)"><g><path d="M 8.171875 0.25 C 6.703125 0.25 5.40625 -0.0234375 4.28125 -0.578125 C 3.164062 -1.140625 2.300781 -1.925781 1.6875 -2.9375 C 1.082031 -3.957031 0.78125 -5.128906 0.78125 -6.453125 L 0.78125 -7.734375 C 0.78125 -7.878906 0.820312 -7.992188 0.90625 -8.078125 C 0.988281 -8.160156 1.097656 -8.203125 1.234375 -8.203125 L 3.296875 -8.203125 C 3.441406 -8.203125 3.550781 -8.160156 3.625 -8.078125 C 3.707031 -7.992188 3.75 -7.878906 3.75 -7.734375 L 3.75 -6.453125 C 3.75 -5.210938 4.148438 -4.210938 4.953125 -3.453125 C 5.765625 -2.703125 6.835938 -2.328125 8.171875 -2.328125 C 9.515625 -2.328125 10.585938 -2.703125 11.390625 -3.453125 C 12.203125 -4.210938 12.609375 -5.210938 12.609375 -6.453125 L 12.609375 -21.265625 C 12.609375 -21.410156 12.648438 -21.523438 12.734375 -21.609375 C 12.816406 -21.691406 12.929688 -21.734375 13.078125 -21.734375 L 15.09375 -21.734375 C 15.238281 -21.734375 15.347656 -21.691406 15.421875 -21.609375 C 15.503906 -21.523438 15.546875 -21.410156 15.546875 -21.265625 L 15.546875 -6.453125 C 15.546875 -5.128906 15.238281 -3.957031 14.625 -2.9375 C 14.019531 -1.925781 13.160156 -1.140625 12.046875 -0.578125 C 10.929688 -0.0234375 9.640625 0.25 8.171875 0.25 Z M 8.171875 0.25 "/></g></g></g><g fill="#ffffff" fill-opacity="1"><g transform="translate(71.35304, 296.708747)"><g><path d="M 15.859375 0 C 15.597656 0 15.425781 -0.125 15.34375 -0.375 L 14.25 -3.84375 C 14.207031 -3.925781 14.15625 -3.96875 14.09375 -3.96875 L 5.4375 -3.96875 C 5.375 -3.96875 5.320312 -3.925781 5.28125 -3.84375 L 4.1875 -0.375 C 4.101562 -0.125 3.925781 0 3.65625 0 L 1.453125 0 C 1.109375 0 0.988281 -0.175781 1.09375 -0.53125 L 7.796875 -21.359375 C 7.878906 -21.609375 8.054688 -21.734375 8.328125 -21.734375 L 11.171875 -21.734375 C 11.441406 -21.734375 11.617188 -21.609375 11.703125 -21.359375 L 18.46875 -0.53125 C 18.488281 -0.488281 18.5 -0.425781 18.5 -0.34375 C 18.5 -0.113281 18.363281 0 18.09375 0 Z M 6.078125 -6.515625 C 6.054688 -6.390625 6.097656 -6.328125 6.203125 -6.328125 L 13.3125 -6.328125 C 13.4375 -6.328125 13.476562 -6.390625 13.4375 -6.515625 L 9.84375 -18.09375 C 9.820312 -18.175781 9.789062 -18.21875 9.75 -18.21875 C 9.707031 -18.21875 9.675781 -18.175781 9.65625 -18.09375 Z M 6.078125 -6.515625 "/></g></g></g><g fill="#ffffff" fill-opacity="1"><g transform="translate(93.334921, 296.708747)"><g><path d="M 8.171875 0 C 7.898438 0 7.722656 -0.125 7.640625 -0.375 L 1.0625 -21.203125 C 1.039062 -21.242188 1.03125 -21.304688 1.03125 -21.390625 C 1.03125 -21.617188 1.171875 -21.734375 1.453125 -21.734375 L 3.65625 -21.734375 C 3.78125 -21.734375 3.894531 -21.695312 4 -21.625 C 4.101562 -21.550781 4.164062 -21.453125 4.1875 -21.328125 L 9.28125 -4.40625 C 9.300781 -4.320312 9.332031 -4.28125 9.375 -4.28125 C 9.414062 -4.28125 9.445312 -4.320312 9.46875 -4.40625 L 14.53125 -21.328125 C 14.550781 -21.453125 14.613281 -21.550781 14.71875 -21.625 C 14.820312 -21.695312 14.9375 -21.734375 15.0625 -21.734375 L 17.203125 -21.734375 C 17.578125 -21.734375 17.710938 -21.554688 17.609375 -21.203125 L 10.953125 -0.375 C 10.867188 -0.125 10.695312 0 10.4375 0 Z M 8.171875 0 "/></g></g></g><g fill="#ffffff" fill-opacity="1"><g transform="translate(114.416421, 296.708747)"><g><path d="M 3.015625 0 C 2.867188 0 2.753906 -0.0390625 2.671875 -0.125 C 2.585938 -0.207031 2.546875 -0.320312 2.546875 -0.46875 L 2.546875 -21.265625 C 2.546875 -21.410156 2.585938 -21.523438 2.671875 -21.609375 C 2.753906 -21.691406 2.867188 -21.734375 3.015625 -21.734375 L 5.0625 -21.734375 C 5.207031 -21.734375 5.320312 -21.691406 5.40625 -21.609375 C 5.488281 -21.523438 5.53125 -21.410156 5.53125 -21.265625 L 5.53125 -0.46875 C 5.53125 -0.320312 5.488281 -0.207031 5.40625 -0.125 C 5.320312 -0.0390625 5.207031 0 5.0625 0 Z M 3.015625 0 "/></g></g></g><g fill="#ffffff" fill-opacity="1"><g transform="translate(124.910813, 296.708747)"><g><path d="M 16.984375 -19.625 C 16.984375 -19.476562 16.941406 -19.363281 16.859375 -19.28125 C 16.773438 -19.195312 16.660156 -19.15625 16.515625 -19.15625 L 5.6875 -19.15625 C 5.582031 -19.15625 5.53125 -19.101562 5.53125 -19 L 5.53125 -12.390625 C 5.53125 -12.285156 5.582031 -12.234375 5.6875 -12.234375 L 13.078125 -12.234375 C 13.210938 -12.234375 13.320312 -12.191406 13.40625 -12.109375 C 13.488281 -12.023438 13.53125 -11.910156 13.53125 -11.765625 L 13.53125 -10.125 C 13.53125 -9.976562 13.488281 -9.863281 13.40625 -9.78125 C 13.320312 -9.695312 13.210938 -9.65625 13.078125 -9.65625 L 5.6875 -9.65625 C 5.582031 -9.65625 5.53125 -9.601562 5.53125 -9.5 L 5.53125 -2.734375 C 5.53125 -2.628906 5.582031 -2.578125 5.6875 -2.578125 L 16.515625 -2.578125 C 16.660156 -2.578125 16.773438 -2.535156 16.859375 -2.453125 C 16.941406 -2.367188 16.984375 -2.253906 16.984375 -2.109375 L 16.984375 -0.46875 C 16.984375 -0.320312 16.941406 -0.207031 16.859375 -0.125 C 16.773438 -0.0390625 16.660156 0 16.515625 0 L 3.015625 0 C 2.867188 0 2.753906 -0.0390625 2.671875 -0.125 C 2.585938 -0.207031 2.546875 -0.320312 2.546875 -0.46875 L 2.546875 -21.265625 C 2.546875 -21.410156 2.585938 -21.523438 2.671875 -21.609375 C 2.753906 -21.691406 2.867188 -21.734375 3.015625 -21.734375 L 16.515625 -21.734375 C 16.660156 -21.734375 16.773438 -21.691406 16.859375 -21.609375 C 16.941406 -21.523438 16.984375 -21.410156 16.984375 -21.265625 Z M 16.984375 -19.625 "/></g></g></g><g fill="#ffffff" fill-opacity="1"><g transform="translate(145.89917, 296.708747)"><g><path d="M 15.0625 0 C 14.8125 0 14.632812 -0.113281 14.53125 -0.34375 L 10.25 -9.53125 C 10.207031 -9.613281 10.144531 -9.65625 10.0625 -9.65625 L 5.6875 -9.65625 C 5.582031 -9.65625 5.53125 -9.601562 5.53125 -9.5 L 5.53125 -0.46875 C 5.53125 -0.320312 5.488281 -0.207031 5.40625 -0.125 C 5.320312 -0.0390625 5.207031 0 5.0625 0 L 3.015625 0 C 2.867188 0 2.753906 -0.0390625 2.671875 -0.125 C 2.585938 -0.207031 2.546875 -0.320312 2.546875 -0.46875 L 2.546875 -21.296875 C 2.546875 -21.441406 2.585938 -21.554688 2.671875 -21.640625 C 2.753906 -21.722656 2.867188 -21.765625 3.015625 -21.765625 L 11.203125 -21.765625 C 12.453125 -21.765625 13.546875 -21.503906 14.484375 -20.984375 C 15.421875 -20.472656 16.148438 -19.75 16.671875 -18.8125 C 17.191406 -17.882812 17.453125 -16.804688 17.453125 -15.578125 C 17.453125 -14.148438 17.066406 -12.9375 16.296875 -11.9375 C 15.535156 -10.9375 14.5 -10.257812 13.1875 -9.90625 C 13.113281 -9.863281 13.085938 -9.800781 13.109375 -9.71875 L 17.515625 -0.5625 L 17.578125 -0.3125 C 17.578125 -0.101562 17.441406 0 17.171875 0 Z M 5.6875 -19.1875 C 5.582031 -19.1875 5.53125 -19.132812 5.53125 -19.03125 L 5.53125 -12.140625 C 5.53125 -12.035156 5.582031 -11.984375 5.6875 -11.984375 L 10.828125 -11.984375 C 11.910156 -11.984375 12.785156 -12.3125 13.453125 -12.96875 C 14.128906 -13.632812 14.46875 -14.492188 14.46875 -15.546875 C 14.46875 -16.648438 14.132812 -17.53125 13.46875 -18.1875 C 12.8125 -18.851562 11.929688 -19.1875 10.828125 -19.1875 Z M 5.6875 -19.1875 "/></g></g></g><g fill="#ffffff" fill-opacity="1"><g transform="translate(167.353241, 296.708747)"><g/></g></g><g fill="#ffffff" fill-opacity="1"><g transform="translate(175.984792, 296.708747)"><g><path d="M 11.046875 -21.765625 C 12.316406 -21.765625 13.429688 -21.5 14.390625 -20.96875 C 15.347656 -20.445312 16.09375 -19.707031 16.625 -18.75 C 17.15625 -17.800781 17.421875 -16.707031 17.421875 -15.46875 C 17.421875 -14.21875 17.148438 -13.125 16.609375 -12.1875 C 16.066406 -11.257812 15.304688 -10.535156 14.328125 -10.015625 C 13.347656 -9.503906 12.210938 -9.25 10.921875 -9.25 L 5.5 -9.25 C 5.394531 -9.25 5.34375 -9.195312 5.34375 -9.09375 L 5.34375 -0.46875 C 5.34375 -0.320312 5.300781 -0.207031 5.21875 -0.125 C 5.132812 -0.0390625 5.019531 0 4.875 0 L 2.828125 0 C 2.679688 0 2.566406 -0.0390625 2.484375 -0.125 C 2.398438 -0.207031 2.359375 -0.320312 2.359375 -0.46875 L 2.359375 -21.296875 C 2.359375 -21.441406 2.398438 -21.554688 2.484375 -21.640625 C 2.566406 -21.722656 2.679688 -21.765625 2.828125 -21.765625 Z M 10.65625 -11.671875 C 11.789062 -11.671875 12.703125 -12.007812 13.390625 -12.6875 C 14.085938 -13.375 14.4375 -14.28125 14.4375 -15.40625 C 14.4375 -16.539062 14.085938 -17.453125 13.390625 -18.140625 C 12.703125 -18.835938 11.789062 -19.1875 10.65625 -19.1875 L 5.5 -19.1875 C 5.394531 -19.1875 5.34375 -19.132812 5.34375 -19.03125 L 5.34375 -11.828125 C 5.34375 -11.722656 5.394531 -11.671875 5.5 -11.671875 Z M 10.65625 -11.671875 "/></g></g></g><g fill="#ffffff" fill-opacity="1"><g transform="translate(196.817916, 296.708747)"><g><path d="M 16.984375 -19.625 C 16.984375 -19.476562 16.941406 -19.363281 16.859375 -19.28125 C 16.773438 -19.195312 16.660156 -19.15625 16.515625 -19.15625 L 5.6875 -19.15625 C 5.582031 -19.15625 5.53125 -19.101562 5.53125 -19 L 5.53125 -12.390625 C 5.53125 -12.285156 5.582031 -12.234375 5.6875 -12.234375 L 13.078125 -12.234375 C 13.210938 -12.234375 13.320312 -12.191406 13.40625 -12.109375 C 13.488281 -12.023438 13.53125 -11.910156 13.53125 -11.765625 L 13.53125 -10.125 C 13.53125 -9.976562 13.488281 -9.863281 13.40625 -9.78125 C 13.320312 -9.695312 13.210938 -9.65625 13.078125 -9.65625 L 5.6875 -9.65625 C 5.582031 -9.65625 5.53125 -9.601562 5.53125 -9.5 L 5.53125 -2.734375 C 5.53125 -2.628906 5.582031 -2.578125 5.6875 -2.578125 L 16.515625 -2.578125 C 16.660156 -2.578125 16.773438 -2.535156 16.859375 -2.453125 C 16.941406 -2.367188 16.984375 -2.253906 16.984375 -2.109375 L 16.984375 -0.46875 C 16.984375 -0.320312 16.941406 -0.207031 16.859375 -0.125 C 16.773438 -0.0390625 16.660156 0 16.515625 0 L 3.015625 0 C 2.867188 0 2.753906 -0.0390625 2.671875 -0.125 C 2.585938 -0.207031 2.546875 -0.320312 2.546875 -0.46875 L 2.546875 -21.265625 C 2.546875 -21.410156 2.585938 -21.523438 2.671875 -21.609375 C 2.753906 -21.691406 2.867188 -21.734375 3.015625 -21.734375 L 16.515625 -21.734375 C 16.660156 -21.734375 16.773438 -21.691406 16.859375 -21.609375 C 16.941406 -21.523438 16.984375 -21.410156 16.984375 -21.265625 Z M 16.984375 -19.625 "/></g></g></g><g fill="#ffffff" fill-opacity="1"><g transform="translate(217.806273, 296.708747)"><g><path d="M 15.0625 0 C 14.8125 0 14.632812 -0.113281 14.53125 -0.34375 L 10.25 -9.53125 C 10.207031 -9.613281 10.144531 -9.65625 10.0625 -9.65625 L 5.6875 -9.65625 C 5.582031 -9.65625 5.53125 -9.601562 5.53125 -9.5 L 5.53125 -0.46875 C 5.53125 -0.320312 5.488281 -0.207031 5.40625 -0.125 C 5.320312 -0.0390625 5.207031 0 5.0625 0 L 3.015625 0 C 2.867188 0 2.753906 -0.0390625 2.671875 -0.125 C 2.585938 -0.207031 2.546875 -0.320312 2.546875 -0.46875 L 2.546875 -21.296875 C 2.546875 -21.441406 2.585938 -21.554688 2.671875 -21.640625 C 2.753906 -21.722656 2.867188 -21.765625 3.015625 -21.765625 L 11.203125 -21.765625 C 12.453125 -21.765625 13.546875 -21.503906 14.484375 -20.984375 C 15.421875 -20.472656 16.148438 -19.75 16.671875 -18.8125 C 17.191406 -17.882812 17.453125 -16.804688 17.453125 -15.578125 C 17.453125 -14.148438 17.066406 -12.9375 16.296875 -11.9375 C 15.535156 -10.9375 14.5 -10.257812 13.1875 -9.90625 C 13.113281 -9.863281 13.085938 -9.800781 13.109375 -9.71875 L 17.515625 -0.5625 L 17.578125 -0.3125 C 17.578125 -0.101562 17.441406 0 17.171875 0 Z M 5.6875 -19.1875 C 5.582031 -19.1875 5.53125 -19.132812 5.53125 -19.03125 L 5.53125 -12.140625 C 5.53125 -12.035156 5.582031 -11.984375 5.6875 -11.984375 L 10.828125 -11.984375 C 11.910156 -11.984375 12.785156 -12.3125 13.453125 -12.96875 C 14.128906 -13.632812 14.46875 -14.492188 14.46875 -15.546875 C 14.46875 -16.648438 14.132812 -17.53125 13.46875 -18.1875 C 12.8125 -18.851562 11.929688 -19.1875 10.828125 -19.1875 Z M 5.6875 -19.1875 "/></g></g></g><g fill="#ffffff" fill-opacity="1"><g transform="translate(239.260344, 296.708747)"><g><path d="M 16.984375 -19.625 C 16.984375 -19.476562 16.941406 -19.363281 16.859375 -19.28125 C 16.773438 -19.195312 16.660156 -19.15625 16.515625 -19.15625 L 5.6875 -19.15625 C 5.582031 -19.15625 5.53125 -19.101562 5.53125 -19 L 5.53125 -12.390625 C 5.53125 -12.285156 5.582031 -12.234375 5.6875 -12.234375 L 13.078125 -12.234375 C 13.210938 -12.234375 13.320312 -12.191406 13.40625 -12.109375 C 13.488281 -12.023438 13.53125 -11.910156 13.53125 -11.765625 L 13.53125 -10.125 C 13.53125 -9.976562 13.488281 -9.863281 13.40625 -9.78125 C 13.320312 -9.695312 13.210938 -9.65625 13.078125 -9.65625 L 5.6875 -9.65625 C 5.582031 -9.65625 5.53125 -9.601562 5.53125 -9.5 L 5.53125 -2.734375 C 5.53125 -2.628906 5.582031 -2.578125 5.6875 -2.578125 L 16.515625 -2.578125 C 16.660156 -2.578125 16.773438 -2.535156 16.859375 -2.453125 C 16.941406 -2.367188 16.984375 -2.253906 16.984375 -2.109375 L 16.984375 -0.46875 C 16.984375 -0.320312 16.941406 -0.207031 16.859375 -0.125 C 16.773438 -0.0390625 16.660156 0 16.515625 0 L 3.015625 0 C 2.867188 0 2.753906 -0.0390625 2.671875 -0.125 C 2.585938 -0.207031 2.546875 -0.320312 2.546875 -0.46875 L 2.546875 -21.265625 C 2.546875 -21.410156 2.585938 -21.523438 2.671875 -21.609375 C 2.753906 -21.691406 2.867188 -21.734375 3.015625 -21.734375 L 16.515625 -21.734375 C 16.660156 -21.734375 16.773438 -21.691406 16.859375 -21.609375 C 16.941406 -21.523438 16.984375 -21.410156 16.984375 -21.265625 Z M 16.984375 -19.625 "/></g></g></g><g fill="#ffffff" fill-opacity="1"><g transform="translate(260.2487, 296.708747)"><g><path d="M 3.015625 0 C 2.867188 0 2.753906 -0.0390625 2.671875 -0.125 C 2.585938 -0.207031 2.546875 -0.320312 2.546875 -0.46875 L 2.546875 -21.265625 C 2.546875 -21.410156 2.585938 -21.523438 2.671875 -21.609375 C 2.753906 -21.691406 2.867188 -21.734375 3.015625 -21.734375 L 5.0625 -21.734375 C 5.207031 -21.734375 5.320312 -21.691406 5.40625 -21.609375 C 5.488281 -21.523438 5.53125 -21.410156 5.53125 -21.265625 L 5.53125 -0.46875 C 5.53125 -0.320312 5.488281 -0.207031 5.40625 -0.125 C 5.320312 -0.0390625 5.207031 0 5.0625 0 Z M 3.015625 0 "/></g></g></g><g fill="#ffffff" fill-opacity="1"><g transform="translate(270.743089, 296.708747)"><g><path d="M 15.0625 0 C 14.8125 0 14.632812 -0.113281 14.53125 -0.34375 L 10.25 -9.53125 C 10.207031 -9.613281 10.144531 -9.65625 10.0625 -9.65625 L 5.6875 -9.65625 C 5.582031 -9.65625 5.53125 -9.601562 5.53125 -9.5 L 5.53125 -0.46875 C 5.53125 -0.320312 5.488281 -0.207031 5.40625 -0.125 C 5.320312 -0.0390625 5.207031 0 5.0625 0 L 3.015625 0 C 2.867188 0 2.753906 -0.0390625 2.671875 -0.125 C 2.585938 -0.207031 2.546875 -0.320312 2.546875 -0.46875 L 2.546875 -21.296875 C 2.546875 -21.441406 2.585938 -21.554688 2.671875 -21.640625 C 2.753906 -21.722656 2.867188 -21.765625 3.015625 -21.765625 L 11.203125 -21.765625 C 12.453125 -21.765625 13.546875 -21.503906 14.484375 -20.984375 C 15.421875 -20.472656 16.148438 -19.75 16.671875 -18.8125 C 17.191406 -17.882812 17.453125 -16.804688 17.453125 -15.578125 C 17.453125 -14.148438 17.066406 -12.9375 16.296875 -11.9375 C 15.535156 -10.9375 14.5 -10.257812 13.1875 -9.90625 C 13.113281 -9.863281 13.085938 -9.800781 13.109375 -9.71875 L 17.515625 -0.5625 L 17.578125 -0.3125 C 17.578125 -0.101562 17.441406 0 17.171875 0 Z M 5.6875 -19.1875 C 5.582031 -19.1875 5.53125 -19.132812 5.53125 -19.03125 L 5.53125 -12.140625 C 5.53125 -12.035156 5.582031 -11.984375 5.6875 -11.984375 L 10.828125 -11.984375 C 11.910156 -11.984375 12.785156 -12.3125 13.453125 -12.96875 C 14.128906 -13.632812 14.46875 -14.492188 14.46875 -15.546875 C 14.46875 -16.648438 14.132812 -17.53125 13.46875 -18.1875 C 12.8125 -18.851562 11.929688 -19.1875 10.828125 -19.1875 Z M 5.6875 -19.1875 "/></g></g></g><g fill="#ffffff" fill-opacity="1"><g transform="translate(292.19716, 296.708747)"><g><path d="M 15.859375 0 C 15.597656 0 15.425781 -0.125 15.34375 -0.375 L 14.25 -3.84375 C 14.207031 -3.925781 14.15625 -3.96875 14.09375 -3.96875 L 5.4375 -3.96875 C 5.375 -3.96875 5.320312 -3.925781 5.28125 -3.84375 L 4.1875 -0.375 C 4.101562 -0.125 3.925781 0 3.65625 0 L 1.453125 0 C 1.109375 0 0.988281 -0.175781 1.09375 -0.53125 L 7.796875 -21.359375 C 7.878906 -21.609375 8.054688 -21.734375 8.328125 -21.734375 L 11.171875 -21.734375 C 11.441406 -21.734375 11.617188 -21.609375 11.703125 -21.359375 L 18.46875 -0.53125 C 18.488281 -0.488281 18.5 -0.425781 18.5 -0.34375 C 18.5 -0.113281 18.363281 0 18.09375 0 Z M 6.078125 -6.515625 C 6.054688 -6.390625 6.097656 -6.328125 6.203125 -6.328125 L 13.3125 -6.328125 C 13.4375 -6.328125 13.476562 -6.390625 13.4375 -6.515625 L 9.84375 -18.09375 C 9.820312 -18.175781 9.789062 -18.21875 9.75 -18.21875 C 9.707031 -18.21875 9.675781 -18.175781 9.65625 -18.09375 Z M 6.078125 -6.515625 "/></g></g></g></svg>