<svg xmlns="http://www.w3.org/2000/svg" xmlns:xlink="http://www.w3.org/1999/xlink" width="500" zoomAndPan="magnify" viewBox="0 0 375 374.999991" height="500" preserveAspectRatio="xMidYMid meet" version="1.0"><defs><g/></defs><g fill="#fe00ae" fill-opacity="1"><g transform="translate(38.801216, 287.889389)"><g><path d="M 86.578125 4.4375 C 70.296875 4.4375 54.859375 2.585938 40.265625 -1.109375 C 25.679688 -4.804688 13.53125 -9.929688 3.8125 -16.484375 L 3.8125 -72.3125 L 67.234375 -72.3125 L 67.234375 -69.140625 C 67.234375 -57.722656 72.734375 -52.015625 83.734375 -52.015625 C 89.441406 -52.015625 93.722656 -53.546875 96.578125 -56.609375 C 99.429688 -59.679688 100.859375 -64.492188 100.859375 -71.046875 L 100.859375 -194.734375 L 72.3125 -194.734375 L 72.3125 -246.75 L 205.515625 -246.75 L 205.515625 -194.734375 L 189.65625 -194.734375 L 189.65625 -88.171875 C 189.65625 -57.085938 180.5625 -33.878906 162.375 -18.546875 C 144.195312 -3.222656 118.929688 4.4375 86.578125 4.4375 Z M 86.578125 4.4375 "/></g></g></g><g fill="#fe00ae" fill-opacity="1"><g transform="translate(250.022258, 287.889389)"><g/></g></g><g fill="#0666e6" fill-opacity="1"><g transform="translate(64.476635, 317.448264)"><g><path d="M 87.453125 4.484375 C 71.003906 4.484375 55.410156 2.613281 40.671875 -1.125 C 25.941406 -4.863281 13.664062 -10.039062 3.84375 -16.65625 L 3.84375 -73.03125 L 67.90625 -73.03125 L 67.90625 -69.828125 C 67.90625 -58.296875 73.457031 -52.53125 84.5625 -52.53125 C 90.332031 -52.53125 94.65625 -54.078125 97.53125 -57.171875 C 100.414062 -60.273438 101.859375 -65.132812 101.859375 -71.75 L 101.859375 -196.671875 L 73.03125 -196.671875 L 73.03125 -249.203125 L 207.5625 -249.203125 L 207.5625 -196.671875 L 191.546875 -196.671875 L 191.546875 -89.046875 C 191.546875 -57.660156 182.363281 -34.222656 164 -18.734375 C 145.632812 -3.253906 120.117188 4.484375 87.453125 4.484375 Z M 87.453125 4.484375 "/></g></g></g><g fill="#0666e6" fill-opacity="1"><g transform="translate(277.798469, 317.448264)"><g/></g></g><g fill="#ffd600" fill-opacity="1"><g transform="translate(47.18229, 300.061215)"><g><path d="M 87.453125 4.484375 C 71.003906 4.484375 55.410156 2.613281 40.671875 -1.125 C 25.941406 -4.863281 13.664062 -10.039062 3.84375 -16.65625 L 3.84375 -73.03125 L 67.90625 -73.03125 L 67.90625 -69.828125 C 67.90625 -58.296875 73.457031 -52.53125 84.5625 -52.53125 C 90.332031 -52.53125 94.65625 -54.078125 97.53125 -57.171875 C 100.414062 -60.273438 101.859375 -65.132812 101.859375 -71.75 L 101.859375 -196.671875 L 73.03125 -196.671875 L 73.03125 -249.203125 L 207.5625 -249.203125 L 207.5625 -196.671875 L 191.546875 -196.671875 L 191.546875 -89.046875 C 191.546875 -57.660156 182.363281 -34.222656 164 -18.734375 C 145.632812 -3.253906 120.117188 4.484375 87.453125 4.484375 Z M 87.453125 4.484375 "/></g></g></g><g fill="#ffd600" fill-opacity="1"><g transform="translate(260.504124, 300.061215)"><g/></g></g></svg>